<svg width="116" height="94" viewBox="0 0 116 94" fill="none" xmlns="http://www.w3.org/2000/svg">
<path d="M50.064 35L53.984 24.28H52.016L49.888 30.536L49.072 33.624L48.272 30.536L46.144 24.28H44.08L48 35H50.064ZM56.2014 35.16C57.8334 35.16 58.5854 33.944 58.8254 32.92V33.496C58.8254 34.616 59.4814 35 60.3134 35H61.4174V33.464H60.9214C60.6334 33.464 60.5054 33.352 60.5054 33V30.072C60.5054 28.152 59.4174 27.048 57.4814 27.048C55.7534 27.048 54.5374 27.944 53.9294 28.776L55.0014 30.056C55.4494 29.24 56.2654 28.632 57.3054 28.632C58.3774 28.632 58.7294 29.16 58.7934 29.944L56.1854 31.048C54.9214 31.544 54.1534 32.216 54.1534 33.32C54.1534 34.44 54.9214 35.16 56.2014 35.16ZM55.8814 33.048C55.8814 32.648 56.1534 32.376 56.8254 32.072L58.8254 31.176V32.008C58.8254 33.064 58.0254 33.768 56.8414 33.768C56.1854 33.768 55.8814 33.496 55.8814 33.048ZM64.5798 35V24.28H62.7878V35H64.5798ZM68.8593 35.16C70.4113 35.16 71.2113 34.104 71.4993 32.872V35H73.3073V27.208H71.4993V31.576C71.4993 32.856 71.0513 33.704 69.7393 33.704C68.5393 33.704 68.2193 33.048 68.2193 32.088V27.208H66.4273V32.632C66.4273 34.248 67.3553 35.16 68.8593 35.16ZM78.6188 35.16C80.3468 35.16 81.4028 34.376 81.9948 33.48L80.8908 32.328C80.6028 32.984 79.9948 33.688 78.6348 33.688C77.4028 33.688 76.5868 32.936 76.4908 31.544H82.0588C82.0908 31.384 82.1228 31.048 82.1228 30.76C82.1228 28.6 80.8268 27.048 78.4908 27.048C76.2988 27.048 74.7788 28.664 74.7788 31.112C74.7788 33.544 76.2988 35.16 78.6188 35.16ZM78.4908 28.488C79.6748 28.488 80.3788 29.16 80.5068 30.392H76.5068C76.6508 29.128 77.3868 28.488 78.4908 28.488Z" fill="black" fill-opacity="0.5"/>
<circle cx="28" cy="30" r="7.5" stroke="black" stroke-opacity="0.5"/>
<path d="M50.064 67L53.984 56.28H52.016L49.888 62.536L49.072 65.624L48.272 62.536L46.144 56.28H44.08L48 67H50.064ZM56.2014 67.16C57.8334 67.16 58.5854 65.944 58.8254 64.92V65.496C58.8254 66.616 59.4814 67 60.3134 67H61.4174V65.464H60.9214C60.6334 65.464 60.5054 65.352 60.5054 65V62.072C60.5054 60.152 59.4174 59.048 57.4814 59.048C55.7534 59.048 54.5374 59.944 53.9294 60.776L55.0014 62.056C55.4494 61.24 56.2654 60.632 57.3054 60.632C58.3774 60.632 58.7294 61.16 58.7934 61.944L56.1854 63.048C54.9214 63.544 54.1534 64.216 54.1534 65.32C54.1534 66.44 54.9214 67.16 56.2014 67.16ZM55.8814 65.048C55.8814 64.648 56.1534 64.376 56.8254 64.072L58.8254 63.176V64.008C58.8254 65.064 58.0254 65.768 56.8414 65.768C56.1854 65.768 55.8814 65.496 55.8814 65.048ZM64.5798 67V56.28H62.7878V67H64.5798ZM68.8593 67.16C70.4113 67.16 71.2113 66.104 71.4993 64.872V67H73.3073V59.208H71.4993V63.576C71.4993 64.856 71.0513 65.704 69.7393 65.704C68.5393 65.704 68.2193 65.048 68.2193 64.088V59.208H66.4273V64.632C66.4273 66.248 67.3553 67.16 68.8593 67.16ZM78.6188 67.16C80.3468 67.16 81.4028 66.376 81.9948 65.48L80.8908 64.328C80.6028 64.984 79.9948 65.688 78.6348 65.688C77.4028 65.688 76.5868 64.936 76.4908 63.544H82.0588C82.0908 63.384 82.1228 63.048 82.1228 62.76C82.1228 60.6 80.8268 59.048 78.4908 59.048C76.2988 59.048 74.7788 60.664 74.7788 63.112C74.7788 65.544 76.2988 67.16 78.6188 67.16ZM78.4908 60.488C79.6748 60.488 80.3788 61.16 80.5068 62.392H76.5068C76.6508 61.128 77.3868 60.488 78.4908 60.488Z" fill="black"/>
<circle cx="28" cy="62" r="7.5" stroke="black"/>
<circle cx="28" cy="62" r="5" fill="black"/>
<rect x="0.5" y="0.5" width="115" height="93" rx="4.5" stroke="#9747FF" stroke-dasharray="10 5"/>
</svg>
